<svg xmlns="http://www.w3.org/2000/svg" xmlns:xlink="http://www.w3.org/1999/xlink" viewBox="0 0 512 512">
    <defs>
        <style>
            .gradientForLogo {
                fill: url(#GradientForLogo_1);
            }
        </style>
        <linearGradient id="GradientForLogo_1" x1="96.91" y1="415.09" x2="415.09" y2="96.91"
            gradientUnits="userSpaceOnUse">
            <stop offset="0" stop-color="#424de1" />
            <stop offset="1" stop-color="#3a9dff" />
        </linearGradient>
    </defs>
    <g id="Layer_2" data-name="Layer 2">
        <g id="Logo">
            <g id="logo-2" data-name="logo">
                <path id="Logo-3" data-name="Logo" class="gradientForLogo"
                    d="M461.26,163.72l-68.13,68.13a37.58,37.58,0,0,0-8,11.77l-26.31,61.26a113.55,113.55,0,0,1-24,35.42l-78.08,78.08a19,19,0,0,1-26.92,0l-19.07-19.07L205.46,394l-19.07-19.06a19,19,0,0,1,0-26.92l78.08-78.08a113.55,113.55,0,0,1,35.42-24l61.26-26.31a37.58,37.58,0,0,0,11.77-8l74.28-74.28A224.84,224.84,0,0,0,256,31C131.74,31,31,131.74,31,256a224.16,224.16,0,0,0,19.74,92.28l68.13-68.13a37.58,37.58,0,0,0,8-11.77l26.31-61.26a113.55,113.55,0,0,1,24-35.42l78.08-78.08a19,19,0,0,1,26.92,0l19.07,19.07,5.32,5.33,19.07,19.06a19,19,0,0,1,0,26.92l-78.08,78.08a113.55,113.55,0,0,1-35.42,24l-61.26,26.31a37.58,37.58,0,0,0-11.77,8L64.8,374.64A224.84,224.84,0,0,0,256,481c124.26,0,225-100.74,225-225A224.16,224.16,0,0,0,461.26,163.72Z" />
            </g>
        </g>
    </g>
</svg>