<svg xmlns="http://www.w3.org/2000/svg" viewBox="0 0 512 512">
    <circle fill="currentColor" cx="335.71" cy="335.71" r="22.14" />
    <circle fill="currentColor" cx="176.28" cy="176.28" r="22.14" />
    <path fill="currentColor"
        d="M345.17,234.86h-19a73.26,73.26,0,1,0-91.29,91.28v19a21.14,21.14,0,1,0,42.28,0v-19a73.58,73.58,0,0,0,49-49h19a21.14,21.14,0,1,0,0-42.28Z" />
    <path fill="currentColor"
        d="M335.21,145.88a21.14,21.14,0,1,0-29.89,29.89l30.9,30.91a21.14,21.14,0,1,0,29.9-29.9Z" />
    <path fill="currentColor"
        d="M143.26,213a21.13,21.13,0,0,0-21.13,21.13v43.71a21.14,21.14,0,1,0,42.27,0V234.14A21.13,21.13,0,0,0,143.26,213Z" />
    <path fill="currentColor"
        d="M256,0C114.84,0,0,114.84,0,256S114.84,512,256,512,512,397.16,512,256,397.16,0,256,0Zm0,429.33c-95.57,0-173.33-77.75-173.33-173.33S160.43,82.67,256,82.67,429.33,160.43,429.33,256,351.58,429.33,256,429.33Z" />
</svg>