<svg xmlns="http://www.w3.org/2000/svg" viewBox="0 0 512 512">
    <path fill="currentColor"
        d="M461.26,163.72l-68.13,68.13a37.58,37.58,0,0,0-8,11.77l-26.31,61.26a113.55,113.55,0,0,1-24,35.42l-78.08,78.08a19,19,0,0,1-26.92,0l-19.07-19.07L205.46,394l-19.07-19.06a19,19,0,0,1,0-26.92l78.08-78.08a113.55,113.55,0,0,1,35.42-24l61.26-26.31a37.58,37.58,0,0,0,11.77-8l74.28-74.28A224.84,224.84,0,0,0,256,31C131.74,31,31,131.74,31,256a224.16,224.16,0,0,0,19.74,92.28l68.13-68.13a37.58,37.58,0,0,0,8-11.77l26.31-61.26a113.55,113.55,0,0,1,24-35.42l78.08-78.08a19,19,0,0,1,26.92,0l19.07,19.07,5.32,5.33,19.07,19.06a19,19,0,0,1,0,26.92l-78.08,78.08a113.55,113.55,0,0,1-35.42,24l-61.26,26.31a37.58,37.58,0,0,0-11.77,8L64.8,374.64A224.84,224.84,0,0,0,256,481c124.26,0,225-100.74,225-225A224.16,224.16,0,0,0,461.26,163.72Z" />
</svg>